<svg id="_x31__x2C_5" enable-background="new 0 0 24 24" height="512" viewBox="0 0 24 24" width="512" xmlns="http://www.w3.org/2000/svg"><path d="m23.25 14.5-11.25 4.75-11.25-4.75 11.25-4.76z" fill="#2196f3"/><path d="m23.25 14.5v4l-11.25 4.75v-4z" fill="#42a5f5"/><path d="m12 19.25v4l-11.25-4.75v-4z" fill="#64b5f6"/><path d="m6.75 6 5.25-5.25 5.25 5.25h-3.5v6.75c0 .276-.224.5-.5.5h-2.5c-.276 0-.5-.224-.5-.5v-6.75z" fill="#cfd8dc"/><path d="m12 20c-.099 0-.198-.02-.292-.059l-11.25-4.75c-.277-.117-.458-.389-.458-.691 0-.301.181-.574.458-.691l6.25-2.64c.383-.16.821.018.983.399.161.382-.018.822-.399.983l-4.614 1.949 9.322 3.936 9.322-3.936-4.614-1.949c-.381-.161-.56-.601-.399-.983.161-.381.602-.559.983-.399l6.25 2.64c.277.117.458.39.458.691 0 .302-.181.574-.458.691l-11.25 4.75c-.094.039-.193.059-.292.059z"/><path d="m12 24c-.099 0-.198-.02-.292-.059l-11.25-4.75c-.277-.117-.458-.39-.458-.691v-4c0-.414.336-.75.75-.75s.75.336.75.75v3.502l10.5 4.434 10.5-4.434v-3.502c0-.414.336-.75.75-.75s.75.336.75.75v4c0 .301-.181.574-.458.691l-11.25 4.75c-.094.039-.193.059-.292.059z"/><path d="m12 24c-.414 0-.75-.336-.75-.75v-4c0-.414.336-.75.75-.75s.75.336.75.75v4c0 .414-.336.75-.75.75z"/><path d="m13.25 14h-2.5c-.689 0-1.25-.561-1.25-1.25v-6h-2.75c-.303 0-.577-.183-.693-.463s-.052-.603.163-.817l5.25-5.25c.293-.293.768-.293 1.061 0l5.25 5.25c.214.214.279.537.163.817s-.391.463-.694.463h-2.75v6c0 .689-.561 1.25-1.25 1.25zm-2.25-1.5h2v-6.5c0-.414.336-.75.75-.75h1.689l-3.439-3.439-3.439 3.439h1.689c.414 0 .75.336.75.75z"/></svg>